<svg xmlns="http://www.w3.org/2000/svg" version="1.1" xmlns:xlink="http://www.w3.org/1999/xlink" xmlns:svgjs="http://svgjs.dev/svgjs" width="100" height="100" viewBox="0 0 1000 1000"><rect width="1000" height="1000" fill="#dedede"></rect><g transform="matrix(0.7,0,0,0.7,149.57575757575756,282.1265587044535)"><svg viewBox="0 0 396 247" data-background-color="#dedede" preserveAspectRatio="xMidYMid meet" height="623" width="1000" xmlns="http://www.w3.org/2000/svg" xmlns:xlink="http://www.w3.org/1999/xlink"><g id="tight-bounds" transform="matrix(1,0,0,1,0.2400000000000091,-0.09999999999999432)"><svg viewBox="0 0 395.52 247.2" height="247.2" width="395.52"><g><svg></svg></g><g><svg viewBox="0 0 395.52 247.2" height="247.2" width="395.52"><mask id="4ed36992-8a8d-4fa5-9a76-acd928b0c1c7"><rect width="395.52" height="247.2" fill="white"></rect><g transform="matrix(1,0,0,1,134.07935071323166,37.08)" id="clone"><svg viewBox="0 0 127.36129857353664 173.04" height="173.04" width="127.36129857353664"><g><svg viewBox="0 0 127.36129857353664 173.04" height="173.04" width="127.36129857353664"><g><svg viewBox="0 0 127.36129857353664 173.04" height="173.04" width="127.36129857353664"><g><svg viewBox="0 0 127.36129857353664 173.04" height="173.04" width="127.36129857353664"><g id="SvgjsG1186"><svg viewBox="0 0 127.36129857353664 173.04" height="173.04" width="127.36129857353664" id="SvgjsSvg1185"><g><svg viewBox="0 0 127.36129857353664 173.04" height="173.04" width="127.36129857353664"><g transform="matrix(1,0,0,1,0,0)"><svg width="127.36129857353664" viewBox="-0.6000000000000001 -28.38 23.700000000000003 31.839999999999996" height="173.04" data-palette-color="#000000"><path d="M20.1-6.8L20.1-6.8Q20.1-3.31 17.51-1.43 14.91 0.46 10.09 0.46 5.26 0.46 2.48-1.11L2.48-1.11 2.48-4.63Q6.37-2.65 10.31-2.65L10.31-2.65Q16.46-2.65 16.46-6.47L16.46-6.47Q16.46-7.94 15.17-8.99 13.88-10.04 10.36-11.36 6.85-12.69 5.31-13.68L5.31-13.68Q2.4-15.65 2.4-18.76 2.4-21.87 4.88-23.62 7.36-25.38 11.56-25.38 15.77-25.38 19.57-23.76L19.57-23.76 18.23-20.68Q14.51-22.22 11.64-22.22 8.77-22.22 7.39-21.4 6.02-20.58 6.02-19.06L6.02-19.06Q6.02-18.1 6.51-17.38 7-16.66 8.14-16.01 9.28-15.37 12.54-14.18L12.54-14.18Q16.99-12.54 18.54-10.91 20.1-9.28 20.1-6.8Z" opacity="1" transform="matrix(1,0,0,1,0,0)" fill="black" class="wordmark-text-0" id="SvgjsPath1184" stroke-width="5" stroke="black" stroke-linejoin="round"></path></svg></g></svg></g></svg></g></svg></g></svg></g></svg></g></svg></g></mask><g mask="url(#4ed36992-8a8d-4fa5-9a76-acd928b0c1c7)"><g><path d="M261.231 170.877v0c0 17.791-6.409 31.639-19.227 41.546-12.817 9.947-30.75 14.92-53.796 14.92-23.047 0-41.02-3.073-53.919-9.219v0-22.684c18.195 7.561 36.896 11.342 56.102 11.342v0c15.446 0 27.171-2.911 35.177-8.734 8.046-5.822 12.069-14.152 12.07-24.988v0c0-6.955-1.415-12.636-4.246-17.042-2.79-4.407-7.5-8.552-14.131-12.434-6.672-3.882-16.638-8.168-29.901-12.858v0c-18.721-6.631-32.145-14.556-40.272-23.775-8.127-9.178-12.191-21.389-12.191-36.632 0-15.243 5.822-27.454 17.468-36.633v0c11.887-9.219 27.616-13.828 47.186-13.829 19.57 0 37.785 3.679 54.646 11.039v0l-7.4 20.56c-16.659-7.035-32.792-10.553-48.399-10.553v0c-12.494 0-22.238 2.669-29.233 8.006-6.995 5.378-10.493 12.777-10.493 22.198v0c0 7.157 1.253 12.878 3.761 17.164 2.507 4.286 6.874 8.43 13.1 12.433v0c6.429 3.882 15.83 7.965 28.203 12.252v0c21.268 7.561 35.784 15.688 43.547 24.381v0c7.965 8.572 11.948 19.752 11.948 33.54z" fill="#000000" fill-rule="nonzero" stroke="none" stroke-width="1" stroke-linecap="butt" stroke-linejoin="miter" stroke-miterlimit="10" stroke-dasharray="" stroke-dashoffset="0" font-family="none" font-weight="none" font-size="none" text-anchor="none" style="mix-blend-mode: normal" data-fill-palette-color="tertiary"></path></g></g><g transform="matrix(1,0,0,1,134.07935071323166,37.08)"><svg viewBox="0 0 127.36129857353664 173.04" height="173.04" width="127.36129857353664"><g><svg viewBox="0 0 127.36129857353664 173.04" height="173.04" width="127.36129857353664"><g><svg viewBox="0 0 127.36129857353664 173.04" height="173.04" width="127.36129857353664"><g><svg viewBox="0 0 127.36129857353664 173.04" height="173.04" width="127.36129857353664"><g id="textblocktransform"><svg viewBox="0 0 127.36129857353664 173.04" height="173.04" width="127.36129857353664" id="textblock"><g><svg viewBox="0 0 127.36129857353664 173.04" height="173.04" width="127.36129857353664"><g transform="matrix(1,0,0,1,0,0)"><svg width="127.36129857353664" viewBox="-0.6000000000000001 -28.38 23.700000000000003 31.839999999999996" height="173.04" data-palette-color="#000000"><path d="M20.1-6.8L20.1-6.8Q20.1-3.31 17.51-1.43 14.91 0.46 10.09 0.46 5.26 0.46 2.48-1.11L2.48-1.11 2.48-4.63Q6.37-2.65 10.31-2.65L10.31-2.65Q16.46-2.65 16.46-6.47L16.46-6.47Q16.46-7.94 15.17-8.99 13.88-10.04 10.36-11.36 6.85-12.69 5.31-13.68L5.31-13.68Q2.4-15.65 2.4-18.76 2.4-21.87 4.88-23.62 7.36-25.38 11.56-25.38 15.77-25.38 19.57-23.76L19.57-23.76 18.23-20.68Q14.51-22.22 11.64-22.22 8.77-22.22 7.39-21.4 6.02-20.58 6.02-19.06L6.02-19.06Q6.02-18.1 6.51-17.38 7-16.66 8.14-16.01 9.28-15.37 12.54-14.18L12.54-14.18Q16.99-12.54 18.54-10.91 20.1-9.28 20.1-6.8Z" opacity="1" transform="matrix(1,0,0,1,0,0)" fill="#000000" class="wordmark-text-0" data-fill-palette-color="primary" id="text-0"></path></svg></g></svg></g></svg></g></svg></g></svg></g></svg></g></svg></g></svg></g><defs></defs></svg><rect width="395.52" height="247.2" fill="none" stroke="none" visibility="hidden"></rect></g></svg></g></svg>